<svg xmlns="http://www.w3.org/2000/svg" width="1024" height="1024" viewBox="0 0 1024 1024"><defs><radialGradient id="g-s241"><stop offset="0" stop-color="#D6962C" stop-opacity="0.14"/><stop offset="0.5" stop-color="#D6962C" stop-opacity="0.049"/><stop offset="1" stop-color="#D6962C" stop-opacity="0"/></radialGradient><linearGradient id="metal-s242" x1="0" y1="0" x2="1" y2="1"><stop offset="0" stop-color="#F1C364"/><stop offset="0.5" stop-color="#D6962C"/><stop offset="1" stop-color="#8B5E1A"/></linearGradient></defs><rect width="1024" height="1024" fill="#10100F"/><circle cx="512.0" cy="512.0" r="614.4" fill="url(#g-s241)"/><g transform="translate(512.00,512.00) rotate(0) scale(20.09037) translate(-9.810,-10.240)"><g data-mark="hive"><path d="M0.000 -6.080L5.800 -3.040L5.800 3.040L0.000 6.080L-5.800 3.040L-5.800 -3.040Z" fill="none" stroke="#F2EEE5" stroke-width="1" stroke-linejoin="miter"/><path d="M13.080 -6.080L18.880 -3.040L18.880 3.040L13.080 6.080L7.280 3.040L7.280 -3.040Z" fill="none" stroke="#F2EEE5" stroke-width="1" stroke-linejoin="miter"/><path d="M6.540 4.160L12.340 7.200L12.340 13.280L6.540 16.320L0.740 13.280L0.740 7.200Z" fill="none" stroke="#F2EEE5" stroke-width="1" stroke-linejoin="miter"/><path d="M19.620 3.660L25.897 6.950L25.897 13.530L19.620 16.820L13.343 13.530L13.343 6.950Z" fill="url(#metal-s242)"/><path d="M0.000 13.900L6.277 17.190L6.277 23.770L0.000 27.060L-6.277 23.770L-6.277 17.190Z" fill="url(#metal-s242)" opacity="0.55"/><path d="M13.080 14.400L18.880 17.440L18.880 23.520L13.080 26.560L7.280 23.520L7.280 17.440Z" fill="none" stroke="#F2EEE5" stroke-width="1" stroke-linejoin="miter"/></g></g></svg>