<svg xmlns="http://www.w3.org/2000/svg" width="6016" height="3384" viewBox="0 0 6016 3384"><defs><radialGradient id="g-s5"><stop offset="0" stop-color="#D6962C" stop-opacity="0.42"/><stop offset="0.5" stop-color="#D6962C" stop-opacity="0.147"/><stop offset="1" stop-color="#D6962C" stop-opacity="0"/></radialGradient><linearGradient id="sheen-s6" x1="0" y1="1" x2="1" y2="0"><stop offset="0" stop-color="#8B5E1A"/><stop offset="0.38" stop-color="#D6962C"/><stop offset="0.56" stop-color="#F1C364"/><stop offset="0.74" stop-color="#D6962C"/><stop offset="1" stop-color="#8B5E1A"/></linearGradient></defs><rect width="6016" height="3384" fill="#10100F"/><circle cx="4459.4" cy="1556.6" r="2636.1" fill="url(#g-s5)"/><g opacity="0.16" transform="translate(4459.36,1556.64) rotate(0) scale(82.48751) translate(-9.810,-10.240)"><g data-mark="hive"><path d="M0.000 -6.080L5.800 -3.040L5.800 3.040L0.000 6.080L-5.800 3.040L-5.800 -3.040Z" fill="none" stroke="url(#sheen-s6)" stroke-width="1" stroke-linejoin="miter"/><path d="M13.080 -6.080L18.880 -3.040L18.880 3.040L13.080 6.080L7.280 3.040L7.280 -3.040Z" fill="none" stroke="url(#sheen-s6)" stroke-width="1" stroke-linejoin="miter"/><path d="M6.540 4.160L12.340 7.200L12.340 13.280L6.540 16.320L0.740 13.280L0.740 7.200Z" fill="none" stroke="url(#sheen-s6)" stroke-width="1" stroke-linejoin="miter"/><path d="M19.620 3.660L25.897 6.950L25.897 13.530L19.620 16.820L13.343 13.530L13.343 6.950Z" fill="url(#sheen-s6)"/><path d="M0.000 13.900L6.277 17.190L6.277 23.770L0.000 27.060L-6.277 23.770L-6.277 17.190Z" fill="url(#sheen-s6)" opacity="0.55"/><path d="M13.080 14.400L18.880 17.440L18.880 23.520L13.080 26.560L7.280 23.520L7.280 17.440Z" fill="none" stroke="url(#sheen-s6)" stroke-width="1" stroke-linejoin="miter"/></g></g></svg>